<svg xmlns="http://www.w3.org/2000/svg" style="display: none;">

  <symbol id="icon-antenna" viewBox="0 0 64 64">
    <path fill="currentColor" d="M32 2 20 26h8v16h8V26h8L32 2zm-14 42a4 4 0 1 0 0 8 4 4 0 0 0 0-8zm28 0a4 4 0 1 0 0 8 4 4 0 0 0 0-8zM22 52h20v6H22z"/>
  </symbol>

  <symbol id="icon-clock" viewBox="0 0 64 64">
    <path fill="currentColor" d="M32 4a28 28 0 1 0 0 56 28 28 0 0 0 0-56zm4 30H28V18h4v12h8v4z"/>
  </symbol>

  <symbol id="icon-diagram" viewBox="0 0 64 64">
    <path fill="currentColor" d="M8 54h48v4H8zm6-8h8V26h-8zm14 0h8V14h-8zm14 0h8V34h-8z"/>
  </symbol>

  <symbol id="icon-astronaut" viewBox="0 0 64 64">
    <path fill="currentColor" d="M32 6a18 18 0 0 0-18 18v8a10 10 0 0 0 6 9.17V54h8V42h8v12h8V41.17A10 10 0 0 0 50 32v-8A18 18 0 0 0 32 6zm0 8a10 10 0 1 1 0 20 10 10 0 0 1 0-20z"/>
  </symbol>

  <symbol id="icon-instagram" viewBox="0 0 24 24">
    <path fill="currentColor" d="M7 2h10a5 5 0 0 1 5 5v10a5 5 0 0 1-5 5H7a5 5 0 0 1-5-5V7a5 5 0 0 1 5-5zm0 2a3 3 0 0 0-3 3v10a3 3 0 0 0 3 3h10a3 3 0 0 0 3-3V7a3 3 0 0 0-3-3H7zm5 3.5A4.5 4.5 0 1 1 7.5 12 4.5 4.5 0 0 1 12 7.5zm0 2A2.5 2.5 0 1 0 14.5 12 2.5 2.5 0 0 0 12 9.5zm4.75-3.25a1.25 1.25 0 1 1-1.25 1.25 1.25 1.25 0 0 1 1.25-1.25z"/>
  </symbol>

  <symbol id="icon-twitter" viewBox="0 0 24 24">
    <path fill="currentColor" d="M23 4.5a8.9 8.9 0 0 1-2.6.7A4.5 4.5 0 0 0 22.4 3a9 9 0 0 1-2.9 1.1A4.5 4.5 0 0 0 12 8.2 12.8 12.8 0 0 1 2.7 3.6a4.5 4.5 0 0 0 1.4 6A4.5 4.5 0 0 1 2 9v.1a4.5 4.5 0 0 0 3.6 4.4 4.6 4.6 0 0 1-2 .1 4.5 4.5 0 0 0 4.2 3.1A9 9 0 0 1 1 19.5 12.7 12.7 0 0 0 7.9 21c8.3 0 12.8-6.9 12.8-12.8V7.6A9.2 9.2 0 0 0 23 4.5z"/>
  </symbol>

  <symbol id="icon-facebook" viewBox="0 0 24 24">
    <path fill="currentColor" d="M13.5 22v-8h2.7l.4-3h-3.1V9.1c0-.9.3-1.6 1.6-1.6h1.7V4.8a22 22 0 0 0-2.4-.1c-2.4 0-4 1.4-4 4.1V11H8v3h2.4v8z"/>
  </symbol>

  <symbol id="icon-linkedin" viewBox="0 0 24 24">
    <path fill="currentColor" d="M4.98 3.5A2.49 2.49 0 1 0 5 8.48 2.49 2.49 0 0 0 4.98 3.5zM3 9h4v12H3zm7 0h3.8v1.7h.1c.5-1 1.8-2.1 3.8-2.1 4 0 4.8 2.6 4.8 6V21h-4v-5.6c0-1.3 0-3-1.9-3s-2.2 1.5-2.2 2.9V21h-4z"/>
  </symbol>

  <symbol id="icon-close-black" viewBox="0 0 8 8">
    <path d="M1 1L7 7M7 1L1 7" stroke="black" stroke-width="1.5" stroke-linecap="round"/>
  </symbol>

  <symbol id="icon-check" viewBox="0 0 16 12">
    <path d="M1 6L6 11L15 1" stroke="currentColor" stroke-width="2" fill="none"/>
  </symbol>

  <symbol id="icon-send" viewBox="0 0 24 24">
    <path fill="currentColor" d="M2 21L23 12L2 3V10L17 12L2 14V21Z"/>
  </symbol>

  <symbol id="icon-phone" viewBox="0 0 24 24">
    <path fill="currentColor" d="M6.6 10.8C8.4 14.4 11.6 17.6 15.2 19.4L18 16.6C18.3 16.3 18.7 16.2 19.1 16.3C20.4 16.7 21.7 17 23 17C23.6 17 24 17.4 24 18V23C24 23.6 23.6 24 23 24C10.3 24 0 13.7 0 1C0 0.4 0.4 0 1 0H6C6.6 0 7 0.4 7 1C7 2.3 7.3 3.6 7.7 4.9C7.8 5.3 7.7 5.7 7.4 6L6.6 10.8Z"/>
  </symbol>

  <symbol id="icon-person" viewBox="0 0 24 24">
    <path fill="currentColor" d="M12 12C14.8 12 17 9.8 17 7C17 4.2 14.8 2 12 2C9.2 2 7 4.2 7 7C7 9.8 9.2 12 12 12ZM12 14C8.7 14 2 15.7 2 19V22H22V19C22 15.7 15.3 14 12 14Z"/>
  </symbol>

  <symbol id="icon-email" viewBox="0 0 24 24">
    <path fill="currentColor" d="M2 4H22C23.1 4 24 4.9 24 6V18C24 19.1 23.1 20 22 20H2C0.9 20 0 19.1 0 18V6C0 4.9 0.9 4 2 4ZM12 13L2 6V18H22V6L12 13ZM12 11L22 4H2L12 11Z"/>
  </symbol>

</svg>